Coordinates
version=1
nRows=8
nColumns=40
inDegrees=yes
endheader
time	pelvis_tilt	pelvis_list	pelvis_rotation	pelvis_tx	pelvis_ty	pelvis_tz	hip_flexion_r	hip_adduction_r	hip_rotation_r	knee_angle_r	knee_angle_r_beta	ankle_angle_r	subtalar_angle_r	mtp_angle_r	hip_flexion_l	hip_adduction_l	hip_rotation_l	knee_angle_l	knee_angle_l_beta	ankle_angle_l	subtalar_angle_l	mtp_angle_l	lumbar_extension	lumbar_bending	lumbar_rotation	arm_flex_r	arm_add_r	arm_rot_r	elbow_flex_r	pro_sup_r	wrist_flex_r	wrist_dev_r	arm_flex_l	arm_add_l	arm_rot_l	elbow_flex_l	pro_sup_l	wrist_flex_l	wrist_dev_l
1760625408.25394106	      6.77671810	     -2.06201880	      0.38425938	      0.18065573	      0.83051780	      0.00126395	     80.00000000	     -7.00000000	      0.00000000	     80.00000000	      1.39626340	      0.00000000	      0.00000000	      0.00000000	     80.00000000	     -7.00000000	      0.00000000	     80.00000000	      1.39626340	      0.00000000	      0.00000000	      0.00000000	    -12.03178607	     -0.77052219	      3.31853122	      3.56287098	     -2.00456995	      9.93643713	      0.00000000	      3.48021547	    -70.00000021	    -24.99999983	      5.80161387	     -0.82778774	     -2.93544140	      0.00000000	     21.47010532	    -70.00000021	    -24.99999983
1760625408.26394105	      6.77696406	     -2.05970043	      0.38290059	      0.18061223	      0.83049956	      0.00119319	     80.00000000	     -7.00000000	      0.00000000	     80.00000000	      1.39626340	      0.00000000	      0.00000000	      0.00000000	     80.00000000	     -7.00000000	      0.00000000	     80.00000000	      1.39626340	      0.00000000	      0.00000000	      0.00000000	    -12.03291210	     -0.76826382	      3.31794789	      3.56052800	     -2.00183954	      9.93611912	      0.00000000	      3.47997193	    -70.00000021	    -24.99999983	      5.79939740	     -0.82890248	     -2.93567730	      0.00000000	     21.47016002	    -70.00000021	    -24.99999983
1760625408.27394104	      6.77790585	     -2.05099060	      0.37777861	      0.18061576	      0.83051047	      0.00115754	     80.00000000	     -7.00000000	      0.00000000	     80.00000000	      1.39626340	      0.00000000	      0.00000000	      0.00000000	     80.00000000	     -7.00000000	      0.00000000	     80.00000000	      1.39626340	      0.00000000	      0.00000000	      0.00000000	    -12.03925599	     -0.76230679	      3.31255042	      3.54666682	     -1.99531621	      9.93443598	      0.00000000	      3.47842632	    -70.00000021	    -24.99999983	      5.78681205	     -0.83259621	     -2.93729418	      0.00000000	     21.47058391	    -70.00000021	    -24.99999983
1760625408.28394103	      6.77895103	     -2.05020757	      0.37711105	      0.18058514	      0.83048309	      0.00108217	     80.00000000	     -7.00000000	      0.00000000	     80.00000000	      1.39626340	      0.00000000	      0.00000000	      0.00000000	     80.00000000	     -7.00000000	      0.00000000	     80.00000000	      1.39626340	      0.00000000	      0.00000000	      0.00000000	    -12.03943896	     -0.76148908	      3.31237482	      3.54551529	     -1.99348732	      9.93424100	      0.00000000	      3.47824721	    -70.00000021	    -24.99999983	      5.78491960	     -0.83383969	     -2.93748221	      0.00000000	     21.47063229	    -70.00000021	    -24.99999983
1760625408.29394102	      6.78356865	     -2.04057076	      0.37523134	      0.18061007	      0.83047691	      0.00100048	     80.00000000	     -7.00000000	      0.00000000	     80.00000000	      1.39626340	      0.00000000	      0.00000000	      0.00000000	     80.00000000	     -7.00000000	      0.00000000	     80.00000000	      1.39626340	      0.00000000	      0.00000000	      0.00000000	    -12.04207432	     -0.75409097	      3.31074420	      3.53818514	     -1.97933088	      9.93329715	      0.00000000	      3.47728468	    -70.00000021	    -24.99999983	      5.77132092	     -0.83671317	     -2.93933849	      0.00000000	     21.47083036	    -70.00000021	    -24.99999983
1760625408.30394101	      6.78421115	     -2.04081250	      0.37469935	      0.18059264	      0.83047376	      0.00094770	     80.00000000	     -7.00000000	      0.00000000	     80.00000000	      1.39626340	      0.00000000	      0.00000000	      0.00000000	     80.00000000	     -7.00000000	      0.00000000	     80.00000000	      1.39626340	      0.00000000	      0.00000000	      0.00000000	    -12.04199548	     -0.75415988	      3.31045709	      3.53756777	     -1.97827824	      9.93321792	      0.00000000	      3.47721679	    -70.00000021	    -24.99999983	      5.77057999	     -0.83732882	     -2.93941565	      0.00000000	     21.47086454	    -70.00000021	    -24.99999983
1760625408.31394100	      6.78517836	     -2.03923688	      0.37326791	      0.18057083	      0.83046487	      0.00089349	     80.00000000	     -7.00000000	      0.00000000	     80.00000000	      1.39626340	      0.00000000	      0.00000000	      0.00000000	     80.00000000	     -7.00000000	      0.00000000	     80.00000000	      1.39626340	      0.00000000	      0.00000000	      0.00000000	    -12.04240574	     -0.75248386	      3.30945485	      3.53555215	     -1.97587005	      9.93296152	      0.00000000	      3.47699218	    -70.00000021	    -24.99999983	      5.76880515	     -0.83873437	     -2.93962119	      0.00000000	     21.47094983	    -70.00000021	    -24.99999983
1760625408.32394099	      6.78999651	     -2.03082536	      0.36923164	      0.18063188	      0.83043604	      0.00082337	     80.00000000	     -7.00000000	      0.00000000	     80.00000000	      1.39626340	      0.00000000	      0.00000000	      0.00000000	     80.00000000	     -7.00000000	      0.00000000	     80.00000000	      1.39626340	      0.00000000	      0.00000000	      0.00000000	    -12.04561788	     -0.74521145	      3.30526502	      3.52693511	     -1.96165370	      9.93146972	      0.00000000	      3.47574598	    -70.00000021	    -24.99999983	      5.75639983	     -0.84267216	     -2.94142099	      0.00000000	     21.47127494	    -70.00000021	    -24.99999983
